<svg xmlns="http://www.w3.org/2000/svg" width="10.771" height="12.309" viewBox="0 0 10.771 12.309">
    <defs>
        <style>.groupa,.groupb{fill:#268aff;}.groupa{opacity:0.4;}</style>
    </defs>
    <path class="groupa" d="M0,4.616v6.539a1.154,1.154,0,0,0,1.154,1.154H9.617a1.154,1.154,0,0,0,1.154-1.154V4.616Zm3.077,5.866a.289.289,0,0,1-.289.289H1.827a.289.289,0,0,1-.289-.289V9.521a.289.289,0,0,1,.289-.289h.962a.289.289,0,0,1,.289.289Zm0-3.077a.289.289,0,0,1-.289.289H1.827A.289.289,0,0,1,1.539,7.4V6.443a.289.289,0,0,1,.289-.289h.962a.289.289,0,0,1,.289.289Zm3.077,3.077a.289.289,0,0,1-.289.289H4.9a.289.289,0,0,1-.289-.289V9.521A.289.289,0,0,1,4.9,9.232h.962a.289.289,0,0,1,.289.289Zm0-3.077a.289.289,0,0,1-.289.289H4.9A.289.289,0,0,1,4.616,7.4V6.443A.289.289,0,0,1,4.9,6.155h.962a.289.289,0,0,1,.289.289Zm3.077,3.077a.289.289,0,0,1-.289.289H7.982a.289.289,0,0,1-.289-.289V9.521a.289.289,0,0,1,.289-.289h.962a.289.289,0,0,1,.289.289Zm0-3.077a.289.289,0,0,1-.289.289H7.982A.289.289,0,0,1,7.693,7.4V6.443a.289.289,0,0,1,.289-.289h.962a.289.289,0,0,1,.289.289ZM7.309,3.077h.769a.385.385,0,0,0,.385-.385V.385A.385.385,0,0,0,8.078,0H7.309a.385.385,0,0,0-.385.385V2.693A.385.385,0,0,0,7.309,3.077Zm-4.616,0h.769a.385.385,0,0,0,.385-.385V.385A.385.385,0,0,0,3.462,0H2.693a.385.385,0,0,0-.385.385V2.693A.385.385,0,0,0,2.693,3.077Z" />
    <path class="groupb" d="M10.771,65.154v1.923H0V65.154A1.154,1.154,0,0,1,1.154,64H2.308v1.154a.385.385,0,0,0,.385.385h.769a.385.385,0,0,0,.385-.385V64H6.924v1.154a.385.385,0,0,0,.385.385h.769a.385.385,0,0,0,.385-.385V64H9.617A1.154,1.154,0,0,1,10.771,65.154Z" transform="translate(0 -62.461)" />
</svg>