<svg xmlns="http://www.w3.org/2000/svg" width="12.5" height="12.5" viewBox="0 0 12.5 12.5">
    <defs>
        <style>.circle{fill:#268aff;}</style>
    </defs>
    <path class="circle" d="M6.25,8a6.25,6.25,0,1,0,6.25,6.25A6.249,6.249,0,0,0,6.25,8Zm0,2.419a2.218,2.218,0,1,1-2.218,2.218A2.218,2.218,0,0,1,6.25,10.419Zm0,8.669A4.829,4.829,0,0,1,2.558,17.37,2.81,2.81,0,0,1,5.04,15.863a.616.616,0,0,1,.179.028,3.337,3.337,0,0,0,1.031.174,3.324,3.324,0,0,0,1.031-.174.616.616,0,0,1,.179-.028A2.81,2.81,0,0,1,9.942,17.37,4.829,4.829,0,0,1,6.25,19.089Z" transform="translate(0 -8)" />
</svg>