<svg xmlns="http://www.w3.org/2000/svg" xmlns:xlink="http://www.w3.org/1999/xlink" width="32" height="32" viewBox="0 0 32 32"><defs><style>.a,.c{fill:#ff3439;}.b{clip-path:url(#a);}.c{opacity:0.4;}</style><clipPath id="a"><rect class="a" width="32" height="32"/></clipPath></defs><g class="b"><g transform="translate(0.177 0.702)"><g transform="translate(0 4.415)"><path class="c" d="M58.029,256l-9.23,9.232a2.853,2.853,0,0,1-4.038-4.033l5.19-5.2Z" transform="translate(-41.67 -243.651)"/><path class="a" d="M24.627,24.747l-8.654-8.633a.412.412,0,0,0-.581,0l-1.749,1.744a.412.412,0,0,0,0,.581l.576.571L1.749,31.457a5.478,5.478,0,0,0-.484,7.383,5.271,5.271,0,0,0,4.013,1.847H5.3A5.287,5.287,0,0,0,9.05,39.139L21.722,26.5l.576.571a.412.412,0,0,0,.581,0l1.749-1.744a.408.408,0,0,0,0-.577ZM7.306,37.39a2.812,2.812,0,0,1-2,.823H5.283a2.783,2.783,0,0,1-2.145-.982,2.648,2.648,0,0,1-.605-1.948A3.333,3.333,0,0,1,3.49,33.2L15.962,20.758l4.013,3.99Z" transform="translate(-0.054 -15.994)"/></g><g transform="translate(26.008) rotate(90)"><circle class="a" cx="1.092" cy="1.092" r="1.092" transform="translate(5.459 1.638)"/><circle class="a" cx="1.638" cy="1.638" r="1.638"/></g></g></g></svg>