<svg xmlns="http://www.w3.org/2000/svg" width="8.75" height="10" viewBox="0 0 8.75 10">
    <defs>
        <style>.groupa,.groupb{fill:#268aff;}.groupa{opacity:0.4;}</style>
    </defs>
    <path class="groupa" d="M0,3.75V9.062A.938.938,0,0,0,.937,10H7.813a.937.937,0,0,0,.937-.938V3.75ZM2.5,8.516a.234.234,0,0,1-.234.234H1.484a.234.234,0,0,1-.234-.234V7.734A.234.234,0,0,1,1.484,7.5h.781a.234.234,0,0,1,.234.234Zm0-2.5a.234.234,0,0,1-.234.234H1.484a.234.234,0,0,1-.234-.234V5.234A.234.234,0,0,1,1.484,5h.781a.234.234,0,0,1,.234.234ZM5,8.516a.234.234,0,0,1-.234.234H3.984a.234.234,0,0,1-.234-.234V7.734A.234.234,0,0,1,3.984,7.5h.781A.234.234,0,0,1,5,7.734Zm0-2.5a.234.234,0,0,1-.234.234H3.984a.234.234,0,0,1-.234-.234V5.234A.234.234,0,0,1,3.984,5h.781A.234.234,0,0,1,5,5.234Zm2.5,2.5a.234.234,0,0,1-.234.234H6.484a.234.234,0,0,1-.234-.234V7.734A.234.234,0,0,1,6.484,7.5h.781a.234.234,0,0,1,.234.234Zm0-2.5a.234.234,0,0,1-.234.234H6.484a.234.234,0,0,1-.234-.234V5.234A.234.234,0,0,1,6.484,5h.781a.234.234,0,0,1,.234.234ZM5.937,2.5h.625a.312.312,0,0,0,.312-.313V.313A.312.312,0,0,0,6.562,0H5.937a.313.313,0,0,0-.312.313V2.187A.313.313,0,0,0,5.937,2.5Zm-3.75,0h.625a.312.312,0,0,0,.312-.313V.313A.312.312,0,0,0,2.812,0H2.187a.313.313,0,0,0-.312.313V2.187A.313.313,0,0,0,2.187,2.5Z" />
    <path class="groupb" d="M8.75,64.938V66.5H0V64.938A.937.937,0,0,1,.938,64h.937v.938a.313.313,0,0,0,.312.313h.625a.313.313,0,0,0,.312-.312V64h2.5v.938a.313.313,0,0,0,.313.313h.625a.313.313,0,0,0,.312-.312V64h.938A.937.937,0,0,1,8.75,64.938Z" transform="translate(0 -62.75)" />
</svg>