<svg xmlns="http://www.w3.org/2000/svg" width="13.84" height="12.5" viewBox="0 0 13.84 12.5">
    <defs>
        <style>.sort{fill:#268aff;}</style>
    </defs>
    <path class="sort" d="M22.891,40.035H27.8a.223.223,0,0,0,.223-.223v-.446a.223.223,0,0,0-.223-.223H22.891a.223.223,0,0,0-.223.223v.446A.223.223,0,0,0,22.891,40.035Zm0-5.357H24.23a.223.223,0,0,0,.223-.223v-.446a.223.223,0,0,0-.223-.223H22.891a.223.223,0,0,0-.223.223v.446A.223.223,0,0,0,22.891,34.678Zm0,2.678h3.125a.223.223,0,0,0,.223-.223v-.446a.223.223,0,0,0-.223-.223H22.891a.223.223,0,0,0-.223.223v.446A.223.223,0,0,0,22.891,37.357Zm6.7,4.464h-6.7a.223.223,0,0,0-.223.223v.446a.223.223,0,0,0,.223.223h6.7a.223.223,0,0,0,.223-.223v-.446A.223.223,0,0,0,29.587,41.821Zm-8.512-.347a.333.333,0,0,0-.472,0L19.1,42.941V32.223A.223.223,0,0,0,18.874,32h-.447a.223.223,0,0,0-.223.223V42.935l-1.5-1.461a.335.335,0,0,0-.472,0l-.157.158a.335.335,0,0,0,0,.474l2.345,2.3a.333.333,0,0,0,.471,0l2.344-2.3a.335.335,0,0,0,0-.474Z" transform="translate(-15.971 -32)" />
</svg>