<svg xmlns="http://www.w3.org/2000/svg" width="10.55" height="10.55" viewBox="0 0 10.55 10.55">
    <defs>
        <style>.circlesolid{fill:#268aff;}</style>
    </defs>
    <path class="circlesolid" d="M5.275,8a5.275,5.275,0,1,0,5.275,5.275A5.274,5.274,0,0,0,5.275,8Zm0,2.042A1.872,1.872,0,1,1,3.4,11.914,1.872,1.872,0,0,1,5.275,10.042Zm0,7.317a4.076,4.076,0,0,1-3.116-1.451,2.372,2.372,0,0,1,2.1-1.272.52.52,0,0,1,.151.023,2.816,2.816,0,0,0,.87.147,2.806,2.806,0,0,0,.87-.147.52.52,0,0,1,.151-.023,2.372,2.372,0,0,1,2.1,1.272A4.076,4.076,0,0,1,5.275,17.359Z" transform="translate(0 -8)" />
</svg>