<svg xmlns="http://www.w3.org/2000/svg" width="23.229" height="20.327" viewBox="0 0 23.229 20.327"><defs><style>.a{fill:#25d366;}</style></defs><path class="a" d="M0,36.341v-.363a.546.546,0,0,1,.544-.544h4.8a.544.544,0,0,1,.4.177l4.07,4.4-.989,1.071-3.879-4.2H.544A.546.546,0,0,1,0,36.341Zm22.8,12.64-2.9,2.9a1.453,1.453,0,0,1-2.477-1.025v-2H16.256a.544.544,0,0,1-.4-.177l-4.07-4.4.989-1.071,3.875,4.2h.771V45.052A1.452,1.452,0,0,1,19.9,44.027l2.9,2.9A1.449,1.449,0,0,1,22.8,48.981Zm-.9-1.152-2.9-2.9a.181.181,0,0,0-.309.127V50.86a.179.179,0,0,0,.309.127l2.9-2.9a.175.175,0,0,0,0-.254Zm.9-10.463-2.9,2.9a1.453,1.453,0,0,1-2.477-1.025V36.885h-.771L5.744,48.686a.544.544,0,0,1-.4.177H.544A.546.546,0,0,1,0,48.319v-.363a.546.546,0,0,1,.544-.544h4.4l10.907-11.8a.544.544,0,0,1,.4-.177h1.171v-2A1.452,1.452,0,0,1,19.9,32.412l2.9,2.9A1.449,1.449,0,0,1,22.8,37.366Zm-.9-1.152L19,33.31a.181.181,0,0,0-.309.127v5.807a.179.179,0,0,0,.309.127l2.9-2.9A.175.175,0,0,0,21.905,36.214Z" transform="translate(0 -31.985)"/></svg>